REM DIRINDEX 1\2,1\4,1\3\5,1\3\6,1\3\7
REM DIRNAME folder01,folder02,folder03,folder04,folder05,folder06,folder07
TITLE ""
FILE "CD1Track47.mp3" MP3
  TRACK 01 AUDIO
    TITLE "0:"
    INDEX 01 00:00:00
  TRACK 02 AUDIO
    TITLE "5:cjc082_0844"
    INDEX 01 00:00:33
  TRACK 03 AUDIO
    TITLE "0:"
    INDEX 01 00:02:63
  TRACK 04 AUDIO
    TITLE "6:cjc082_0845"
    INDEX 01 00:03:33
  TRACK 05 AUDIO
    TITLE "0:"
    INDEX 01 00:05:48
  TRACK 06 AUDIO
    TITLE "5:cjc082_0846"
    INDEX 01 00:06:22
  TRACK 07 AUDIO
    TITLE "0:"
    INDEX 01 00:07:70
  TRACK 08 AUDIO
    TITLE "6:cjc082_0847"
    INDEX 01 00:08:42
  TRACK 09 AUDIO
    TITLE "0:"
    INDEX 01 00:09:63
  TRACK 10 AUDIO
    TITLE "5:cjc082_0848"
    INDEX 01 00:10:37
  TRACK 11 AUDIO
    TITLE "0:"
    INDEX 01 00:12:09
  TRACK 12 AUDIO
    TITLE "6:cjc082_0849"
    INDEX 01 00:12:60
  TRACK 13 AUDIO
    TITLE "0:"
    INDEX 01 00:14:72
  TRACK 14 AUDIO
    TITLE "5:cjc082_0850"
    INDEX 01 00:15:40
  TRACK 15 AUDIO
    TITLE "0:"
    INDEX 01 00:16:73
  TRACK 16 AUDIO
    TITLE "6:cjc082_0851"
    INDEX 01 00:17:45
  TRACK 17 AUDIO
    TITLE "0:"
    INDEX 01 00:18:66
  TRACK 18 AUDIO
    TITLE "5:cjc082_0852"
    INDEX 01 00:19:32
  TRACK 19 AUDIO
    TITLE "0:"
    INDEX 01 00:20:36
  TRACK 20 AUDIO
    TITLE "6:cjc082_0853"
    INDEX 01 00:21:09
  TRACK 21 AUDIO
    TITLE "0:"
    INDEX 01 00:24:47
  TRACK 22 AUDIO
    TITLE "5:cjc082_0854"
    INDEX 01 00:25:19
  TRACK 23 AUDIO
    TITLE "0:"
    INDEX 01 00:26:40
  TRACK 24 AUDIO
    TITLE "6:cjc082_0855"
    INDEX 01 00:27:08
  TRACK 25 AUDIO
    TITLE "0:"
    INDEX 01 00:29:66
  TRACK 26 AUDIO
    TITLE "5:cjc082_0856"
    INDEX 01 00:30:38
  TRACK 27 AUDIO
    TITLE "0:"
    INDEX 01 00:31:57
  TRACK 28 AUDIO
    TITLE "6:cjc082_0857"
    INDEX 01 00:32:33
  TRACK 29 AUDIO
    TITLE "0:"
    INDEX 01 00:34:24
  TRACK 30 AUDIO
    TITLE "5:cjc082_0858"
    INDEX 01 00:34:71
  TRACK 31 AUDIO
    TITLE "0:"
    INDEX 01 00:36:15
  TRACK 32 AUDIO
    TITLE "6:cjc082_0859"
    INDEX 01 00:36:66
  TRACK 33 AUDIO
    TITLE "0:"
    INDEX 01 00:40:21
  TRACK 34 AUDIO
    TITLE "5:cjc082_0860"
    INDEX 01 00:40:66
  TRACK 35 AUDIO
    TITLE "0:"
    INDEX 01 00:42:27
  TRACK 36 AUDIO
    TITLE "6:cjc082_0861"
    INDEX 01 00:43:03
  TRACK 37 AUDIO
    TITLE "0:"
    INDEX 01 00:44:24
  TRACK 38 AUDIO
    TITLE "5:cjc082_0862"
    INDEX 01 00:44:73
  TRACK 39 AUDIO
    TITLE "0:"
    INDEX 01 00:46:17
  TRACK 40 AUDIO
    TITLE "6:cjc082_0863"
    INDEX 01 00:46:68
  TRACK 41 AUDIO
    TITLE "0:"
    INDEX 01 00:48:30
  TRACK 42 AUDIO
    TITLE "5:cjc082_0864"
    INDEX 01 00:49:06
  TRACK 43 AUDIO
    TITLE "0:"
    INDEX 01 00:50:31
  TRACK 44 AUDIO
    TITLE "6:cjc082_0865"
    INDEX 01 00:51:09
  TRACK 45 AUDIO
    TITLE "0:"
    INDEX 01 00:52:12
  TRACK 46 AUDIO
    TITLE "5:cjc082_0866"
    INDEX 01 00:52:61
  TRACK 47 AUDIO
    TITLE "0:"
    INDEX 01 00:54:03
  TRACK 48 AUDIO
    TITLE "6:cjc082_0867"
    INDEX 01 00:54:58
  TRACK 49 AUDIO
    TITLE "0:"
    INDEX 01 00:56:00
  TRACK 50 AUDIO
    TITLE "5:cjc082_0868"
    INDEX 01 00:56:45
  TRACK 51 AUDIO
    TITLE "0:"
    INDEX 01 00:57:72
  TRACK 52 AUDIO
    TITLE "6:cjc082_0869"
    INDEX 01 00:58:44
  TRACK 53 AUDIO
    TITLE "0:"
    INDEX 01 01:01:03
  TRACK 54 AUDIO
    TITLE "5:cjc082_0870"
    INDEX 01 01:01:56
  TRACK 55 AUDIO
    TITLE "0:"
    INDEX 01 01:02:73
  TRACK 56 AUDIO
    TITLE "6:cjc082_0871"
    INDEX 01 01:03:47
  TRACK 57 AUDIO
    TITLE "0:"
    INDEX 01 01:05:36
  TRACK 58 AUDIO
    TITLE "5:cjc082_0872"
    INDEX 01 01:06:04
  TRACK 59 AUDIO
    TITLE "0:"
    INDEX 01 01:08:03
  TRACK 60 AUDIO
    TITLE "6:cjc082_0873"
    INDEX 01 01:08:46
  TRACK 61 AUDIO
    TITLE "0:"
    INDEX 01 01:11:00
  TRACK 62 AUDIO
    TITLE "7:cjc082_0874"
    INDEX 01 01:12:40
  TRACK 63 AUDIO
    TITLE "0:"
    INDEX 01 01:22:60
